<?xml version="1.0" encoding="UTF-8"?>
<svg width="95px" height="131px" viewBox="0 0 95 131" version="1.1" xmlns="http://www.w3.org/2000/svg" xmlns:xlink="http://www.w3.org/1999/xlink">
    <title>lumoz-light-icon-full</title>
    <defs>
        <linearGradient x1="36.0753728%" y1="-9.88629849%" x2="59.7828439%" y2="104.390344%" id="linearGradient-1">
            <stop stop-color="#419FDD" offset="0%"></stop>
            <stop stop-color="#A966E5" offset="100%"></stop>
        </linearGradient>
    </defs>
    <g id="Page-1" stroke="none" stroke-width="1" fill="none" fill-rule="evenodd">
        <g id="lumoz-light-icon-full" fill="url(#linearGradient-1)" fill-rule="nonzero">
            <path d="M91.5284643,65.4207617 C93.1853186,65.4207617 94.5284643,66.7639075 94.5284643,68.4207617 C94.5284643,69.0324518 94.3414797,69.6295253 93.9925742,70.1319492 L52.7283421,129.552443 C51.7832793,130.913334 49.9139351,131.250429 48.5530447,130.305366 C47.7457165,129.744721 47.2642322,128.824161 47.2642322,127.841256 L47.2642322,68.4207617 C47.2642322,66.7639075 48.6073779,65.4207617 50.2642322,65.4207617 L91.5284643,65.4207617 Z M45.9754196,0.536157505 C46.7827478,1.09680211 47.2642322,2.01736291 47.2642322,3.00026741 L47.2642322,62.4207617 C47.2642322,64.077616 45.9210864,65.4207617 44.2642322,65.4207617 L3,65.4207617 C1.34314575,65.4207617 0,64.077616 0,62.4207617 C0,61.8090717 0.186984666,61.2119981 0.535890103,60.7095743 L41.8001223,1.28908001 C42.745185,-0.0718102948 44.6145293,-0.408905195 45.9754196,0.536157505 Z" id="Combined-Shape"></path>
        </g>
    </g>
</svg>