<?xml version="1.0" encoding="UTF-8"?>
<svg width="531px" height="131px" viewBox="0 0 531 131" version="1.1" xmlns="http://www.w3.org/2000/svg" xmlns:xlink="http://www.w3.org/1999/xlink">
    <title>Shape Copy</title>
    <defs>
        <path d="M91.5284643,65.4207617 C93.1853186,65.4207617 94.5284643,66.7639075 94.5284643,68.4207617 C94.5284643,69.0324518 94.3414797,69.6295253 93.9925742,70.1319492 L52.7283421,129.552443 C51.7832793,130.913334 49.9139351,131.250429 48.5530447,130.305366 C47.7457165,129.744721 47.2642322,128.824161 47.2642322,127.841256 L47.2642322,68.4207617 C47.2642322,66.7639075 48.6073779,65.4207617 50.2642322,65.4207617 L91.5284643,65.4207617 Z M202.2312,23.149 L202.2312,73.1053 L202.235608,73.6924169 C202.303201,78.1677098 203.148115,82.0464542 204.77035,85.32865 C206.463117,88.75355 208.8448,91.4108 211.9154,93.3004 C214.986,95.19 218.607733,96.1348 222.7806,96.1348 C226.953467,96.1348 230.5752,95.19 233.6458,93.3004 C236.7164,91.4108 239.098083,88.75355 240.79085,85.32865 C242.413085,82.0464542 243.257999,78.1677098 243.325592,73.6924169 L243.33,73.1053 L243.33,23.149 L257.7382,23.149 L257.7382,73.6958 L257.733512,74.4013861 C257.66475,79.5535823 256.839613,84.219537 255.2581,88.39925 C253.6047,92.76895 251.223017,96.5087833 248.11305,99.61875 C245.003083,102.728717 241.302617,105.130083 237.01165,106.82285 C232.720683,108.515617 227.898267,109.362 222.5444,109.362 C217.190533,109.362 212.3878,108.5353 208.1362,106.8819 C203.8846,105.2285 200.243183,102.827133 197.21195,99.6778 C194.180717,96.5284667 191.858083,92.76895 190.24405,88.39925 C188.703382,84.2281727 187.898033,79.5728611 187.828002,74.433315 L187.823,73.6958 L187.823,23.149 L202.2312,23.149 Z M412.6854,20.787 C417.566867,20.787 422.153083,21.4956 426.44405,22.9128 C430.735017,24.33 434.632317,26.3573833 438.13595,28.99495 C441.639583,31.6325167 444.651133,34.7621667 447.1706,38.3839 C449.690067,42.0056333 451.619033,46.0604 452.9575,50.5482 C454.295967,55.036 454.9652,59.8387333 454.9652,64.9564 C454.9652,70.0740667 454.276283,74.8768 452.89845,79.3646 C451.520617,83.8524 449.571967,87.92685 447.0525,91.58795 C444.533033,95.24905 441.521483,98.4180667 438.01785,101.095 C434.514217,103.771933 430.616917,105.819 426.32595,107.2362 C422.034983,108.6534 417.448767,109.362 412.5673,109.362 C407.685833,109.362 403.099617,108.6534 398.80865,107.2362 C394.517683,105.819 390.620383,103.791617 387.11675,101.15405 C383.613117,98.5164833 380.601567,95.3868333 378.0821,91.7651 C375.562633,88.1433667 373.613983,84.0886 372.23615,79.6008 C370.858317,75.113 370.1694,70.3102667 370.1694,65.1926 C370.1694,60.0749333 370.858317,55.2722 372.23615,50.7844 C373.613983,46.2966 375.562633,42.22215 378.0821,38.56105 C380.601567,34.89995 383.6328,31.7309333 387.1758,29.054 C390.7188,26.3770667 394.635783,24.33 398.92675,22.9128 C403.217717,21.4956 407.803933,20.787 412.6854,20.787 Z M139.8744,23.149 L139.8744,94.1271 L175.4225,94.1271 L175.4225,107 L125.4662,107 L125.4662,23.149 L139.8744,23.149 Z M287.2632,23.149 L315.1348,74.5225 L343.1245,23.149 L356.4698,23.149 L356.4698,107 L342.1797,107 L342.1797,49.131 L320.2131,89.5212 L309.5841,89.5212 L287.6175,49.131 L287.6175,107 L273.3274,107 L273.3274,23.149 L287.2632,23.149 Z M527.5967,23.149 L527.5967,33.5418 L483.073,94.7176 L530.1949,94.7176 L530.1949,107 L465.2399,107 L465.2399,96.6072 L509.7636,35.4314 L467.0114,35.4314 L467.0114,23.149 L527.5967,23.149 Z M412.5673,34.0142 C408.5519,34.0142 404.871117,34.78185 401.52495,36.31715 C398.178783,37.85245 395.285333,39.9979333 392.8446,42.7536 C390.403867,45.5092667 388.494583,48.7963833 387.11675,52.61495 C385.738917,56.4335167 385.05,60.5867 385.05,65.0745 C385.05,69.5623 385.738917,73.7154833 387.11675,77.53405 C388.494583,81.3526167 390.403867,84.6397333 392.8446,87.3954 C395.285333,90.1510667 398.178783,92.29655 401.52495,93.83185 C404.871117,95.36715 408.5519,96.1348 412.5673,96.1348 C416.5827,96.1348 420.263483,95.36715 423.60965,93.83185 C426.955817,92.29655 429.849267,90.1510667 432.29,87.3954 C434.730733,84.6397333 436.640017,81.3526167 438.01785,77.53405 C439.395683,73.7154833 440.0846,69.5623 440.0846,65.0745 C440.0846,60.5867 439.395683,56.4335167 438.01785,52.61495 C436.640017,48.7963833 434.730733,45.5092667 432.29,42.7536 C429.849267,39.9979333 426.955817,37.85245 423.60965,36.31715 C420.263483,34.78185 416.5827,34.0142 412.5673,34.0142 Z M45.9754196,0.53615753 C46.7827478,1.09680214 47.2642322,2.01736292 47.2642322,3.00026743 L47.2642322,62.4207617 C47.2642322,64.077616 45.9210864,65.4207617 44.2642322,65.4207617 L3,65.4207617 C1.34314575,65.4207617 0,64.077616 0,62.4207617 C0,61.8090717 0.186984666,61.2119981 0.535890103,60.7095743 L41.8001223,1.28908 C42.745185,-0.07181032 44.6145293,-0.408905191 45.9754196,0.53615753 Z" id="path-1"></path>
    </defs>
    <g id="Page-1" stroke="none" stroke-width="1" fill="none" fill-rule="evenodd">
        <g id="lumoz-dark-icon-full" transform="translate(-0.000000, 0.000000)" fill-rule="nonzero">
            <g id="Shape-Copy">
                <use fill="#707070" xlink:href="#path-1"></use>
                <use fill="#000000" xlink:href="#path-1"></use>
            </g>
        </g>
    </g>
</svg>